<?xml version="1.0" encoding="UTF-8" standalone="no"?> <svg width="64" height="64" viewBox="0 0 64 64" fill="none" xmlns="http://www.w3.org/2000/svg">
<path d="M59.62 11.8699C59.3551 11.6564 59.0252 11.54 58.685 11.54C58.3448 11.54 58.0149 11.6564 57.75 11.8699L55.75 13.4699L32 32.9199L8.21001 13.4999L6.21001 11.8999C5.94514 11.6864 5.6152 11.57 5.27501 11.57C4.93483 11.57 4.60488 11.6864 4.34001 11.8999C3.75996 12.4136 3.29589 13.0449 2.97864 13.7518C2.66139 14.4588 2.49823 15.2251 2.50001 15.9999V47.9999C2.50266 49.4578 3.08297 50.8552 4.11385 51.8861C5.14472 52.917 6.54214 53.4973 8.00001 53.4999H56C57.4579 53.4973 58.8553 52.917 59.8862 51.8861C60.9171 50.8552 61.4974 49.4578 61.5 47.9999V15.9999C61.5011 15.217 61.3338 14.443 61.0094 13.7304C60.685 13.0178 60.2112 12.3833 59.62 11.8699V11.8699Z" fill="#FFD164"/>
<path d="M59.86 12.11C59.7903 12.0203 59.7097 11.9397 59.62 11.87C58.6206 10.9874 57.3333 10.5002 56 10.5H7.99998C6.66667 10.5002 5.37935 10.9874 4.37998 11.87C4.29027 11.9397 4.20964 12.0203 4.13998 12.11C4.01404 12.2618 3.9195 12.4371 3.86184 12.6258C3.80418 12.8144 3.78454 13.0126 3.80408 13.2089C3.82361 13.4052 3.88193 13.5956 3.97564 13.7692C4.06935 13.9428 4.19659 14.096 4.34998 14.22L5.60998 15.22L31.05 36C31.3217 36.2324 31.6674 36.3601 32.025 36.3601C32.3825 36.3601 32.7283 36.2324 33 36L58.39 15.25L59.65 14.25C59.8078 14.1258 59.9389 13.9709 60.0353 13.7947C60.1318 13.6185 60.1916 13.4247 60.2112 13.2248C60.2308 13.0249 60.2098 12.8231 60.1495 12.6315C60.0891 12.4399 59.9906 12.2625 59.86 12.11V12.11Z" fill="#F8B64C"/>
<path d="M56 10.5H8C6.54212 10.5026 5.14471 11.083 4.11383 12.1138C3.08295 13.1447 2.50264 14.5421 2.5 16V48C2.50264 49.4579 3.08295 50.8553 4.11383 51.8862C5.14471 52.917 6.54212 53.4974 8 53.5H56C57.4579 53.4974 58.8553 52.917 59.8862 51.8862C60.917 50.8553 61.4974 49.4579 61.5 48V16C61.4974 14.5421 60.917 13.1447 59.8862 12.1138C58.8553 11.083 57.4579 10.5026 56 10.5V10.5ZM55.79 13.5L32 32.92L8.21 13.5H55.79ZM58.5 48C58.5 48.663 58.2366 49.2989 57.7678 49.7678C57.2989 50.2366 56.663 50.5 56 50.5H8C7.33696 50.5 6.70107 50.2366 6.23223 49.7678C5.76339 49.2989 5.5 48.663 5.5 48V16C5.50404 15.7488 5.54446 15.4996 5.62 15.26L31.05 36C31.3217 36.2324 31.6675 36.3601 32.025 36.3601C32.3825 36.3601 32.7283 36.2324 33 36L58.38 15.26C58.4555 15.4996 58.496 15.7488 58.5 16V48Z" fill="black"/>
</svg>
